# xmcd CD database file
#
# Track frame offsets:
#	150
#	13040
#	27472
#	38814
#	51800
#	66530
#	86673
#	102631
#	117269
#	124148
#	139593
#	161646
#	176713
#	190998
#	211838
#	223884
#	235716
#	248988
#	263161
#	276329
#	291010
#	304968
#	320566
#	332806
#
# Disc length: 4587 seconds
#
# Revision: 0
# Processed by: cddbd v1.5.2PL0 Copyright (c) Steve Scherf et al.
# Submitted via: CDex 1.51
#
DISCID=7911e918
DTITLE=Frank Sinatra - My Way: The Best Of CD 1
DYEAR=1997
DGENRE=Jazz
TTITLE0=Bad, Bad Leroy Brown
TTITLE1=Come Fly With Me
TTITLE2=Fly Me To The Moon
TTITLE3=For Once In My Life
TTITLE4=I Get A Kick Out Of You
TTITLE5=t Was A Very Good Year
TTITLE6=I've Got You Under My Skin
TTITLE7=La Is My Lady
TTITLE8=Love And Marriage
TTITLE9=Love's Been Good To Me
TTITLE10=Mack The Knife
TTITLE11=Moon River
TTITLE12=My Kind Of Town
TTITLE13=My Way
TTITLE14=Somethin' Stupid
TTITLE15=Strangers In The Night
TTITLE16=Summer Wind
TTITLE17=That's Life
TTITLE18=The Best Is Yet To Come
TTITLE19=The Girl From Ipanema
TTITLE20=The Lady Is A Tramp
TTITLE21=Theme From New York, New York
TTITLE22=They Can't Take That Away From
TTITLE23=What Now My Love
EXTD=YEAR: 1997
EXTT0=
EXTT1=
EXTT2=
EXTT3=
EXTT4=
EXTT5=
EXTT6=
EXTT7=
EXTT8=
EXTT9=
EXTT10=
EXTT11=
EXTT12=
EXTT13=
EXTT14=
EXTT15=
EXTT16=
EXTT17=
EXTT18=
EXTT19=
EXTT20=
EXTT21=
EXTT22=
EXTT23=
PLAYORDER=
